<?xml version="1.0" encoding="iso-8859-1"?>
<!-- Generator: Adobe Illustrator 19.0.0, SVG Export Plug-In . SVG Version: 6.00 Build 0)  -->
<svg version="1.1" id="Layer_1" xmlns="http://www.w3.org/2000/svg" xmlns:xlink="http://www.w3.org/1999/xlink" x="0px" y="0px"
	 viewBox="0 0 488.385 488.385" style="enable-background:new 0 0 488.385 488.385;" xml:space="preserve">
<path style="fill:#00B7A5;" d="M438.185,248.481c0,2.458-1.993,4.443-4.458,4.443h-122.73c-2.45,0-4.443-1.993-4.443-4.443v-44.489
	c0-2.458,1.993-4.45,4.443-4.45h122.73c2.458,0,4.458,1.993,4.458,4.45V248.481z"/>
<path style="fill:#0794A3;" d="M438.185,248.481v-44.489c0-2.458-1.993-4.45-4.458-4.45h-25.899c-2.458,0-4.458,1.993-4.458,4.45
	v44.489c0,2.458,1.993,4.443,4.458,4.443h25.899C436.193,252.932,438.185,250.939,438.185,248.481z"/>
<path style="fill:#00B7A5;" d="M398.131,196.021c0,2.458-1.993,4.443-4.45,4.443H270.95c-2.458,0-4.45-1.993-4.45-4.443v-44.489
	c0-2.458,1.993-4.45,4.45-4.45h122.73c2.458,0,4.45,1.993,4.45,4.45V196.021z"/>
<path style="fill:#0794A3;" d="M398.131,196.021v-44.489c0-2.458-1.993-4.45-4.45-4.45h-25.907c-2.458,0-4.458,1.993-4.458,4.45
	v44.489c0,2.458,1.993,4.443,4.458,4.443h25.907C396.13,200.472,398.131,198.479,398.131,196.021z"/>
<path style="fill:#00B7A5;" d="M360.448,248.481c0,2.458-1.993,4.443-4.443,4.443h-122.73c-2.458,0-4.458-1.993-4.458-4.443v-44.489
	c0-2.458,1.993-4.45,4.458-4.45h122.73c2.45,0,4.443,1.993,4.443,4.45V248.481z"/>
<path style="fill:#0794A3;" d="M360.448,248.481v-44.489c0-2.458-1.993-4.45-4.443-4.45h-25.931c-2.45,0-4.443,1.993-4.443,4.45
	v44.489c0,2.458,1.993,4.443,4.443,4.443h25.931C358.455,252.932,360.448,250.939,360.448,248.481z"/>
<path style="fill:#88A1A8;" d="M176.049,213.027c0,12.642-10.256,22.89-22.89,22.89h-39.424c-12.642,0-22.89-10.248-22.89-22.89
	v-48.333c0-12.642,10.248-13.982,22.89-13.982h39.424c12.635,0,22.89,1.339,22.89,13.982V213.027z"/>
<path style="fill:#A5B8BF;" d="M209.117,244.512c0,12.642-10.256,22.89-22.89,22.89H80.66c-12.635,0-22.89-10.248-22.89-22.89
	v-24.159c0-12.642,10.256-22.89,22.89-22.89h105.567c12.635,0,22.89,10.248,22.89,22.89V244.512z"/>
<path style="fill:#5A6E7A;" d="M45.859,256.28c-0.008,0.433-0.063,0.843-0.063,1.268c0,56.895,88.828,103.014,198.404,103.014
	s198.404-46.119,198.404-103.014c0-0.425-0.055-0.835-0.063-1.268H45.859z"/>
<path style="fill:#3B4D56;" d="M244.2,360.562c109.576,0,198.404-46.119,198.404-103.014c0-0.425-0.055-0.835-0.063-1.268H45.859
	c-0.008,0.433-0.063,0.843-0.063,1.268"/>
<g>
	<path style="fill:#3BABFF;" d="M462.84,334.75c-11.823,0-22.662-4.112-31.24-10.957c-8.578,6.837-19.417,10.957-31.24,10.957
		c-11.808,0-22.654-4.112-31.232-10.957c-8.578,6.837-19.409,10.957-31.232,10.957c-11.815,0-22.654-4.112-31.232-10.957
		c-8.578,6.837-19.424,10.957-31.24,10.957c-11.808,0-22.662-4.112-31.232-10.957c-8.586,6.837-19.424,10.957-31.232,10.957
		c-11.815,0-22.662-4.112-31.232-10.957c-8.586,6.837-19.424,10.957-31.24,10.957s-22.654-4.112-31.24-10.957
		c-8.57,6.837-19.424,10.957-31.224,10.957c-11.823,0-22.67-4.112-31.24-10.957c-8.57,6.837-19.424,10.957-31.24,10.957
		c-9.35,0-18.062-2.607-25.545-7.058v37.864c7.483,4.443,16.203,7.05,25.545,7.05c11.815,0,22.67-4.104,31.24-10.957
		c8.57,6.845,19.417,10.957,31.24,10.957c11.8,0,22.654-4.104,31.224-10.957c8.586,6.845,19.424,10.957,31.24,10.957
		s22.654-4.104,31.24-10.957c8.57,6.845,19.417,10.957,31.232,10.957c11.808,0,22.646-4.104,31.232-10.957
		c8.57,6.845,19.424,10.957,31.232,10.957c11.815,0,22.662-4.104,31.24-10.957c8.578,6.845,19.417,10.957,31.232,10.957
		c11.815,0,22.654-4.104,31.232-10.957c8.578,6.845,19.424,10.957,31.232,10.957c11.823,0,22.662-4.104,31.24-10.957
		c8.578,6.845,19.417,10.957,31.24,10.957c9.334,0,18.054-2.599,25.545-7.05v-37.864C480.894,332.142,472.166,334.75,462.84,334.75z
		"/>
	<path style="fill:#3BABFF;" d="M431.6,399.514c-8.578,6.829-19.417,10.949-31.24,10.949c-11.808,0-22.654-4.112-31.232-10.949
		c-8.578,6.829-19.409,10.949-31.232,10.949c-11.815,0-22.654-4.112-31.232-10.949c-8.578,6.829-19.424,10.949-31.24,10.949
		c-11.808,0-22.662-4.112-31.232-10.949c-8.586,6.829-19.424,10.949-31.232,10.949c-11.815,0-22.662-4.112-31.232-10.949
		c-8.586,6.829-19.424,10.949-31.24,10.949s-22.654-4.112-31.24-10.949c-8.57,6.829-19.424,10.949-31.224,10.949
		c-11.823,0-22.67-4.112-31.24-10.949c-8.57,6.829-19.424,10.949-31.24,10.949c-9.35,0-18.062-2.599-25.545-7.058v37.864
		c7.483,4.45,16.203,7.05,25.545,7.05c11.815,0,22.67-4.112,31.24-10.949c8.57,6.829,19.417,10.949,31.24,10.949
		c11.8,0,22.654-4.112,31.224-10.949c8.586,6.829,19.424,10.949,31.24,10.949s22.654-4.112,31.24-10.949
		c8.57,6.829,19.417,10.949,31.232,10.949c11.808,0,22.646-4.112,31.232-10.949c8.57,6.829,19.424,10.949,31.232,10.949
		c11.815,0,22.662-4.112,31.24-10.949c8.578,6.829,19.417,10.949,31.232,10.949c11.815,0,22.654-4.112,31.232-10.949
		c8.578,6.829,19.424,10.949,31.232,10.949c11.823,0,22.662-4.112,31.24-10.949c8.578,6.829,19.417,10.949,31.24,10.949
		c9.334,0,18.054-2.592,25.545-7.05v-37.864c-7.491,4.45-16.219,7.058-25.545,7.058C451.017,410.463,440.178,406.343,431.6,399.514z
		"/>
</g>
<path style="fill:#F4D314;" d="M52.909,284.889c4.671,8.791,11.492,17.124,20.196,24.797h342.189
	c8.704-7.68,15.533-16.006,20.196-24.797H52.909z"/>
<path style="fill:#F29816;" d="M98.454,284.889l47.766,24.797h269.068c2.135-1.883,4.151-3.812,6.057-5.766
	c0.071-0.063,0.126-0.126,0.173-0.173c3.844-3.978,7.215-8.09,10.059-12.335v-0.016c1.434-2.127,2.718-4.277,3.875-6.459
	c0-0.008,0.016-0.024,0.016-0.024L98.454,284.889z"/>
<path style="fill:#3B4D56;" d="M452.773,252.451c0,2.812-2.284,5.088-5.089,5.088H40.716c-2.804,0-5.088-2.276-5.088-5.088l0,0
	c0-2.804,2.284-5.088,5.088-5.088h406.969C450.481,247.371,452.773,249.647,452.773,252.451L452.773,252.451z"/>
<path style="fill:#88A1A8;" d="M128.992,162.796c0,2.458,1.985,4.45,4.45,4.45l0,0c2.458,0,4.443-1.993,4.443-4.45V44.516
	c0-2.458-1.993-4.45-4.443-4.45l0,0c-2.465,0-4.45,2.001-4.45,4.45V162.796z"/>
<g>
	<path style="fill:#3B4D56;" d="M90.199,220.975c0,3.34-2.718,6.049-6.042,6.049l0,0c-3.34,0-6.042-2.71-6.042-6.049l0,0
		c0-3.332,2.702-6.034,6.042-6.034l0,0C87.481,214.949,90.199,217.643,90.199,220.975L90.199,220.975z"/>
	<path style="fill:#3B4D56;" d="M114.05,220.975c0,3.34-2.718,6.049-6.042,6.049l0,0c-3.348,0-6.049-2.71-6.049-6.049l0,0
		c0-3.332,2.702-6.034,6.049-6.034l0,0C111.332,214.949,114.05,217.643,114.05,220.975L114.05,220.975z"/>
	<path style="fill:#3B4D56;" d="M137.878,220.975c0,3.34-2.718,6.049-6.042,6.049l0,0c-3.34,0-6.034-2.71-6.034-6.049l0,0
		c0-3.332,2.694-6.034,6.034-6.034l0,0C135.16,214.949,137.878,217.643,137.878,220.975L137.878,220.975z"/>
	<path style="fill:#3B4D56;" d="M161.713,220.975c0,3.34-2.71,6.049-6.034,6.049l0,0c-3.348,0-6.049-2.71-6.049-6.049l0,0
		c0-3.332,2.702-6.034,6.049-6.034l0,0C159.011,214.949,161.713,217.643,161.713,220.975L161.713,220.975z"/>
	<path style="fill:#3B4D56;" d="M191.307,249.923c0,4.907-3.986,8.901-8.901,8.901l0,0c-4.915,0-8.901-3.994-8.901-8.901v-27.995
		c0-4.907,3.986-8.893,8.901-8.893l0,0c4.915,0,8.901,3.986,8.901,8.893V249.923z"/>
</g>
<g>
</g>
<g>
</g>
<g>
</g>
<g>
</g>
<g>
</g>
<g>
</g>
<g>
</g>
<g>
</g>
<g>
</g>
<g>
</g>
<g>
</g>
<g>
</g>
<g>
</g>
<g>
</g>
<g>
</g>
</svg>
