<?xml version="1.0" encoding="iso-8859-1"?>
<!-- Generator: Adobe Illustrator 19.0.0, SVG Export Plug-In . SVG Version: 6.00 Build 0)  -->
<svg version="1.1" id="Layer_1" xmlns="http://www.w3.org/2000/svg" xmlns:xlink="http://www.w3.org/1999/xlink" x="0px" y="0px"
	 viewBox="0 0 512 512" style="enable-background:new 0 0 512 512;" xml:space="preserve">
<g>
	<g>
		<path style="fill:#605F5E;" d="M390.508,368.814h-34.712c-4.799,0-8.678-3.879-8.678-8.678s3.879-8.678,8.678-8.678h34.712
			c4.799,0,8.678,3.879,8.678,8.678S395.307,368.814,390.508,368.814"/>
		<path style="fill:#605F5E;" d="M390.508,403.525h-34.712c-4.799,0-8.678-3.879-8.678-8.678c0-4.799,3.879-8.678,8.678-8.678
			h34.712c4.799,0,8.678,3.879,8.678,8.678C399.186,399.646,395.307,403.525,390.508,403.525"/>
		<path style="fill:#605F5E;" d="M390.508,438.237h-34.712c-4.799,0-8.678-3.879-8.678-8.678s3.879-8.678,8.678-8.678h34.712
			c4.799,0,8.678,3.879,8.678,8.678S395.307,438.237,390.508,438.237"/>
		<path style="fill:#605F5E;" d="M147.525,269.237v-32.751c0-13.182-10.691-23.873-23.882-23.873H95.458v130.169h52.068h52.068
			v-28.195c0-13.182-10.691-23.873-23.882-23.873h-6.708C157.141,290.715,147.525,281.1,147.525,269.237"/>
	</g>
	<g>
		<path style="fill:#797979;" d="M242.983,4.339H69.424v34.712h173.559c13.017,0,33.809,25.557,50.888,82.666
			c17.295,57.804,27.214,135.211,27.214,273.13h34.712C355.797,172.006,313.604,4.339,242.983,4.339"/>
		<path style="fill:#797979;" d="M88.777,39.051L57.953,235.806c1.727,3.489,2.794,7.359,2.794,11.516
			c0,7.09-2.855,13.503-7.454,18.198l-1.224,7.836h43.39l7.229-60.746l21.053-173.559H88.777z"/>
	</g>
	<g>
		<path style="fill:#605F5E;" d="M121.492,472.949c0-19.17-15.542-34.712-34.712-34.712s-34.712,15.542-34.712,34.712
			s15.542,34.712,34.712,34.712S121.492,492.119,121.492,472.949"/>
		<path style="fill:#605F5E;" d="M312.407,472.949c0-19.17-15.542-34.712-34.712-34.712s-34.712,15.542-34.712,34.712
			s15.542,34.712,34.712,34.712S312.407,492.119,312.407,472.949"/>
	</g>
	<g>
		<polygon style="fill:#C0C0C0;" points="425.22,438.237 425.22,247.322 390.508,247.322 390.508,429.559 390.508,472.949 
			425.22,472.949 512,472.949 512,438.237 		"/>
		<path style="fill:#C0C0C0;" d="M34.712,282.034C15.568,282.034,0,266.466,0,247.322s15.568-34.712,34.712-34.712
			s34.712,15.568,34.712,34.712S53.855,282.034,34.712,282.034"/>
	</g>
	<path style="fill:#605F5E;" d="M95.458,342.78H8.678v-33.948c0-19.595,15.881-35.476,35.476-35.476h51.304V342.78z"/>
	<path style="fill:#FBD077;" d="M8.678,394.847v51.46c0,14.709,11.932,26.641,26.641,26.641h16.748
		c0-19.17,15.542-34.712,34.712-34.712s34.712,15.542,34.712,34.712h121.492c0-19.17,15.542-34.712,34.712-34.712
		s34.712,15.542,34.712,34.712h16.748c14.709,0,26.641-11.932,26.641-26.641v-51.46H8.678z"/>
	<path style="fill:#E2B566;" d="M8.678,342.78v52.068h312.407c0-18.432-0.191-35.701-0.538-52.068H8.678z"/>
	<g>
		<path style="fill:#605F5E;" d="M266.257,226.898l-30.685,30.685c-6.777,6.777-17.764,6.777-24.541,0
			c-6.777-6.786-6.777-17.772,0-24.55l30.685-30.677c6.777-6.777,17.764-6.777,24.541,0S273.035,220.12,266.257,226.898"/>
		<polygon style="fill:#605F5E;" points="320.017,322.162 262.76,230.401 236.856,256.305 291.84,342.781 320.547,342.781 		"/>
	</g>
</g>
<g>
</g>
<g>
</g>
<g>
</g>
<g>
</g>
<g>
</g>
<g>
</g>
<g>
</g>
<g>
</g>
<g>
</g>
<g>
</g>
<g>
</g>
<g>
</g>
<g>
</g>
<g>
</g>
<g>
</g>
</svg>
