<?xml version="1.0" encoding="iso-8859-1"?>
<!-- Generator: Adobe Illustrator 19.0.0, SVG Export Plug-In . SVG Version: 6.00 Build 0)  -->
<svg version="1.1" id="Layer_1" xmlns="http://www.w3.org/2000/svg" xmlns:xlink="http://www.w3.org/1999/xlink" x="0px" y="0px"
	 viewBox="0 0 390.513 390.513" style="enable-background:new 0 0 390.513 390.513;" xml:space="preserve">
<path style="fill:#FFC10D;" d="M43.648,368.857h24.372V201.358c0-17.907,14.61-32.517,32.517-32.517h189.673
	c17.907,0,32.517,14.61,32.517,32.517v167.499h23.855V137.939H43.648V368.857z"/>
<path style="fill:#FFFFFF;" d="M289.11,296.776v72.081h11.895V201.358c0-5.947-4.848-10.861-10.861-10.861H100.537
	c-5.947,0-10.861,4.848-10.861,10.861v167.499h12.477v-72.081c0-5.947,4.848-10.861,10.861-10.861h165.818
	C284.262,285.915,289.11,290.828,289.11,296.776z"/>
<g>
	<path style="fill:#FFC10D;" d="M165.054,316.816c0,5.947-4.848,10.861-10.861,10.861c-6.012,0-10.861-4.848-10.861-10.861v-9.244
		h-19.523v61.22h61.22v-61.22h-19.523v9.244H165.054z"/>
	<path style="fill:#FFC10D;" d="M247.413,316.816c0,5.947-4.848,10.861-10.861,10.861c-5.947,0-10.861-4.848-10.861-10.861v-9.244
		h-19.523v61.22h61.22v-61.22h-19.523v9.244H247.413z"/>
</g>
<polygon style="fill:#56ACE0;" points="21.926,89.196 21.926,116.283 368.819,116.283 368.819,89.196 195.373,22.545 "/>
<path style="fill:#194F82;" d="M383.429,71.871L199.187,0.824c-2.715-1.099-5.43-1.099-7.564,0L7.381,71.806
	c-4.331,1.616-7.046,5.43-7.046,10.279v44.994c0,5.947,4.848,10.861,10.861,10.861h10.861v241.713
	c0,5.947,4.848,10.861,10.861,10.861h324.655c5.947,0,10.861-4.848,10.861-10.861V137.939h10.861
	c5.947,0,10.861-4.848,10.861-10.861V82.085C390.476,77.236,387.761,73.487,383.429,71.871z M368.819,116.283H21.926v-26.57
	l173.446-66.651l173.446,66.651V116.283z M267.454,368.857h-61.22v-61.22h19.523v9.244c0,5.948,4.848,10.861,10.861,10.861
	c5.947,0,10.861-4.849,10.861-10.861v-9.244h19.523v61.22H267.454z M184.512,368.857h-61.22v-61.22h19.523v9.244
	c0,5.948,4.848,10.861,10.861,10.861c6.012,0,10.861-4.849,10.861-10.861v-9.244h19.523v61.22H184.512z M101.636,296.776v72.081
	H89.741V201.358c0-5.947,4.848-10.861,10.861-10.861h189.673c5.948,0,10.861,4.848,10.861,10.861v167.499h-12.477v-72.081
	c0-5.947-4.848-10.861-10.861-10.861H112.431C106.484,285.915,101.636,290.828,101.636,296.776z M347.098,368.857h-24.372V201.358
	c0-17.907-14.61-32.517-32.517-32.517H100.537c-17.907,0-32.517,14.61-32.517,32.517v167.499H43.648V137.939h302.933v230.853h0.517
	V368.857z"/>
<g>
</g>
<g>
</g>
<g>
</g>
<g>
</g>
<g>
</g>
<g>
</g>
<g>
</g>
<g>
</g>
<g>
</g>
<g>
</g>
<g>
</g>
<g>
</g>
<g>
</g>
<g>
</g>
<g>
</g>
</svg>
