<?xml version="1.0" encoding="iso-8859-1"?>
<!-- Uploaded to: SVG Repo, www.svgrepo.com, Transformed by: SVG Repo Tools -->
<svg version="1.1" id="Layer_1" xmlns="http://www.w3.org/2000/svg" xmlns:xlink="http://www.w3.org/1999/xlink" 
	 viewBox="0 0 511.991 511.991" xml:space="preserve">
<g>
	<path style="fill:#CCD1D9;" d="M95.994,234.66c-5.875,0-10.656-4.773-10.656-10.664V10.664C85.338,4.773,90.119,0,95.994,0
		c5.906,0,10.672,4.773,10.672,10.664v213.332C106.666,229.887,101.9,234.66,95.994,234.66z"/>
	<path style="fill:#CCD1D9;" d="M415.996,234.66c-5.875,0-10.656-4.773-10.656-10.664V10.664C405.34,4.773,410.121,0,415.996,0
		c5.905,0,10.655,4.773,10.655,10.664v213.332C426.651,229.887,421.901,234.66,415.996,234.66z"/>
</g>
<g>
	<path style="fill:#E6E9ED;" d="M127.994,319.994h-32c-5.875,0-10.656-4.781-10.656-10.656V202.661
		c0-5.891,4.781-10.664,10.656-10.664h32c5.906,0,10.672,4.773,10.672,10.664v106.677
		C138.665,315.213,133.9,319.994,127.994,319.994z"/>
	<path style="fill:#E6E9ED;" d="M415.996,319.994h-31.999c-5.875,0-10.656-4.781-10.656-10.656V202.661
		c0-5.891,4.781-10.664,10.656-10.664h31.999c5.905,0,10.655,4.773,10.655,10.664v106.677
		C426.651,315.213,421.901,319.994,415.996,319.994z"/>
</g>
<rect x="117.335" y="223.996" style="fill:#DA4453;" width="277.31" height="85.34"/>
<g>
	<path style="fill:#ED5564;" d="M341.341,191.997H170.665c-29.406,0-53.327-23.921-53.327-53.335V75.491
		c0-29.413,23.921-53.335,53.327-53.335H341.34c29.406,0,53.312,23.922,53.312,53.335v63.171
		C394.652,168.076,370.747,191.997,341.341,191.997z"/>
	<path style="fill:#ED5564;" d="M405.34,426.648H106.666c-17.641,0-32-14.343-32-31.999V330.65c0-17.625,14.359-31.999,32-31.999
		H405.34c17.624,0,31.999,14.374,31.999,31.999v63.999C437.339,412.306,422.964,426.648,405.34,426.648z"/>
</g>
<rect x="170.665" y="266.656" style="fill:#FFCE54;" width="170.68" height="138.68"/>
<g>
	<path style="fill:#F5F7FA;" d="M138.665,362.65h-21.328c-5.89,0-10.671-4.766-10.671-10.656s4.781-10.656,10.671-10.656h21.328
		c5.89,0,10.671,4.766,10.671,10.656S144.557,362.65,138.665,362.65z"/>
	<path style="fill:#F5F7FA;" d="M394.652,362.65H373.34c-5.906,0-10.688-4.766-10.688-10.656s4.781-10.656,10.688-10.656h21.312
		c5.906,0,10.688,4.766,10.688,10.656S400.558,362.65,394.652,362.65z"/>
</g>
<path style="fill:#ED5564;" d="M394.652,137.201H117.337v88.662h0.172c0.375,2.109,1.375,4.094,2.953,5.672l42.656,42.679
	c2,2,4.718,3.125,7.546,3.125H341.34c2.812,0,5.531-1.125,7.531-3.125l42.656-42.679c1.593-1.578,2.593-3.562,2.968-5.672h0.156
	v-88.662H394.652z"/>
<g>
	<rect x="191.995" y="277.336" style="fill:#F6BB42;" width="21.344" height="128"/>
	<rect x="245.335" y="277.336" style="fill:#F6BB42;" width="21.328" height="128"/>
	<rect x="298.655" y="277.336" style="fill:#F6BB42;" width="21.343" height="128"/>
</g>
<path style="fill:#4FC2E9;" d="M362.653,127.998H149.337c-5.891,0-10.671,4.773-10.671,10.664v63.999
	c0,5.89,4.781,10.671,10.671,10.671h213.316c5.906,0,10.688-4.781,10.688-10.671v-63.999
	C373.341,132.771,368.559,127.998,362.653,127.998z"/>
<g>
	<path style="fill:#434A54;" d="M149.337,426.648H85.338c-5.891,0-10.672,4.781-10.672,10.688v63.999
		c0,5.875,4.781,10.656,10.672,10.656h63.999c5.891,0,10.656-4.781,10.656-10.656v-63.999
		C159.993,431.43,155.227,426.648,149.337,426.648z"/>
	<path style="fill:#434A54;" d="M426.651,426.648h-63.998c-5.875,0-10.656,4.781-10.656,10.688v63.999
		c0,5.875,4.781,10.656,10.656,10.656h63.998c5.906,0,10.688-4.781,10.688-10.656v-63.999
		C437.339,431.43,432.557,426.648,426.651,426.648z"/>
</g>
<path style="fill:#DA4453;" d="M319.997,95.999H191.992c-5.875,0-10.656-4.773-10.656-10.664s4.781-10.672,10.656-10.672h128.005
	c5.906,0,10.656,4.781,10.656,10.672S325.903,95.999,319.997,95.999z"/>
<polygon style="opacity:0.2;fill:#F5F7FA;enable-background:new    ;" points="282.499,127.998 197.165,213.332 250.835,213.332 
	336.153,127.998 "/>
<path style="fill:#E6E9ED;" d="M447.995,405.337h-384c-5.875,0-10.656,4.766-10.656,10.655v21.344
	c0,5.875,4.781,10.656,10.656,10.656h384c5.906,0,10.656-4.781,10.656-10.656v-21.344
	C458.651,410.102,453.901,405.337,447.995,405.337z"/>
<g>
</g>
<g>
</g>
<g>
</g>
<g>
</g>
<g>
</g>
<g>
</g>
<g>
</g>
<g>
</g>
<g>
</g>
<g>
</g>
<g>
</g>
<g>
</g>
<g>
</g>
<g>
</g>
<g>
</g>
</svg>